<?xml version="1.0" encoding="utf-8"?>
<!-- Generator: Adobe Illustrator 16.0.0, SVG Export Plug-In . SVG Version: 6.00 Build 0)  -->
<!DOCTYPE svg PUBLIC "-//W3C//DTD SVG 1.1//EN" "http://www.w3.org/Graphics/SVG/1.1/DTD/svg11.dtd">
<svg version="1.1" id="Layer_1" xmlns="http://www.w3.org/2000/svg" xmlns:xlink="http://www.w3.org/1999/xlink" x="0px" y="0px"
	 width="1256px" height="841.89px" viewBox="0 0 1256 841.89" enable-background="new 0 0 1256 841.89" xml:space="preserve">
<g>
	<path fill="none" d="M772.997,454.822h0.294v-0.225C773.193,454.674,773.097,454.75,772.997,454.822z"/>
	<path fill="none" d="M695.741,424.15v4.213c0,9.129,0.48,15.008,1.448,17.641c0.963,2.633,2.805,3.949,5.529,3.949
		c2.719,0,5.266-2.238,7.636-6.715c2.37-4.475,3.555-10.662,3.555-18.562v-5.706v-18.78h-1.844
		C701.181,400.19,695.741,408.179,695.741,424.15z"/>
	<path fill="#DD5C5B" d="M485.979,389.097v64.956h-19.172v6.432h58.357c-6.844-5.869-11.186-14.572-11.186-24.293
		c0-17.674,14.328-32,32-32c1.644,0,3.258,0.125,4.834,0.363v-25.166c-11.933,8.37-26.456,13.298-42.139,13.298
		C500.752,392.687,493.128,391.417,485.979,389.097z"/>
	<path fill="#9ED097" d="M602.75,286.844c-10.479,0-19.158,1.519-26.058,4.539c1.664,4.064,2.981,8.306,3.9,12.697
		c4.048,0.409,6.904,2.46,8.562,6.167c1.856,4.17,2.788,13.398,2.788,27.689v116.117h-14.291v6.432h55.062V293.471
		C624.718,289.062,614.737,286.844,602.75,286.844z"/>
	<path fill="#CFBCDB" d="M658.714,460.484h17.583v-0.021c-6.789-0.125-12.646-1.031-17.583-2.707V460.484z"/>
	<path fill="#6AC6E1" d="M873.974,314.17c-13.427,0-23.442,2.808-30.055,8.415c-6.611,5.611-11.524,13.026-14.727,22.24v-27.65
		h-72.43v5.41h16.528v23.458h60.807c0.737-1.668,1.556-3.277,2.458-4.824c4.907-8.416,10.565-12.623,16.981-12.623
		c4.207,0,7.109,1.756,8.714,5.26c1.038,2.272,1.738,6.342,2.104,12.187h54.266C913.591,324.803,898.715,314.17,873.974,314.17z"/>
	<path fill="#0077A0" d="M918.745,377.707h-54.089v77.116h-12.321v5.41h34.324c-1.798-6.363-2.78-13.07-2.78-20.01
		C883.879,413.808,897.823,390.658,918.745,377.707z"/>
	<path fill="#0077A0" d="M812.39,460.232h29.726v-5.41h-12.923V442.82C822.859,444.549,817.065,451.957,812.39,460.232z"/>
	<polygon points="773.291,446.016 773.288,446.018 773.291,446.029 	"/>
	<path d="M773.129,460.232h0.162v-0.615C773.24,459.824,773.185,460.027,773.129,460.232z"/>
	<path fill="#0077A0" d="M797.192,394.317c0,6.997-2.557,13.394-6.78,18.319c-0.136,0.16-0.273,0.318-0.413,0.477
		c-0.065,0.072-0.13,0.146-0.196,0.219c-4.228,4.696-9.995,7.979-16.512,9.043v23.641v0.014c0.539,2.176,0.83,4.451,0.83,6.793
		c0,2.344-0.291,4.617-0.83,6.795v0.615h14.86c5.372-10.293,13.54-22.645,24.753-30.949c8.349-6.182,13.325-14.042,16.288-21.48
		v-30.097h-37.424C795.177,382.364,797.192,388.104,797.192,394.317z"/>
	<path fill="#6AC6E1" d="M992.436,375.635V332.16h-66.049v4.853h15.904v31.279c4.865-1.014,9.905-1.553,15.071-1.553
		C970.063,366.739,982.013,369.963,992.436,375.635z"/>
	<path fill="#43AF7D" d="M750.902,340.553c-7.989-7.109-22.426-10.664-43.312-10.664c-24.431,0-40.714,4.793-48.876,14.367v34.831
		l16.49,5.042c6.668,0,12.197-1.884,16.587-5.661c4.386-3.773,6.583-8.248,6.583-13.428c0-5.175-0.703-9.61-2.105-13.296h-6.583
		c-1.053-2.983-1.58-5.924-1.58-8.82c0-2.896,1.271-5.175,3.818-6.846c2.542-1.666,5.396-2.501,8.557-2.501
		c5.266,0,8.82,2.855,10.664,8.557c0.354,1.099,0.675,2.405,0.961,3.91h43.425C754.172,343.938,752.638,342.097,750.902,340.553z"/>
	<path fill="#1E5C93" d="M950.668,309.017c4.012-11.471,11.237-27.272,23.063-38.169c2.11-1.944,3.938-3.992,5.544-6.095
		c-3.198-0.876-6.819-1.338-10.911-1.338c-8.989,0-15.683,2.338-20.085,7.009c-4.405,4.676-6.604,10.606-6.604,17.793
		c0,7.191,2.021,13.21,6.064,18.063C948.592,307.302,949.572,308.21,950.668,309.017z"/>
	<path fill="#126C84" d="M972.203,313.395c7.454-0.595,13.099-2.871,16.92-6.845c4.489-4.672,6.739-10.918,6.739-18.737
		c0-2.365-0.24-4.545-0.669-6.581c-0.715,0.383-1.466,0.672-2.257,0.851C983.284,284.261,976.299,300.5,972.203,313.395z"/>
	<path fill="#F19999" d="M519.339,290.417h-52.532v6.432h19.172v18.815c4.176-3.249,8.723-6.166,13.59-8.403
		C508.61,303.104,514.932,296.806,519.339,290.417z"/>
	<path fill="#ED7134" d="M567.893,296.849c-7.668,6.67-13.365,15.485-17.08,26.439v-32.871h-9.328
		c-5.665,13.856-16.013,34.473-27.113,33.454c-9.449-0.868-20.555,11.322-28.393,22.028v43.198
		c7.149,2.32,14.773,3.589,22.695,3.589c15.683,0,30.206-4.928,42.139-13.298v-23.945c0-14.292,2.843-26.44,8.54-36.443
		c5.69-10.004,12.255-15.006,19.693-15.006c0.536,0,1.048,0.036,1.547,0.086c-0.919-4.391-2.236-8.632-3.9-12.697
		C573.34,292.851,570.4,294.668,567.893,296.849z"/>
	<path fill="#8FD2EA" d="M992.436,455.631v-18.4c-1.522,1.207-3.109,2.188-4.75,2.842c-7.811,3.107-16.521,13.172-22.038,20.412
		h41.886v-4.854H992.436z"/>
	<path fill="#CFBCDB" d="M638.97,427.83c0-12.774,4.957-21.545,14.876-26.314c0.926-0.445,1.913-0.862,2.932-1.266v-20.118
		c-7.302-3.162-10.961-9.925-10.961-20.313c0-9.704,3.527-17.279,10.581-22.728c-1.737-21.339-9.637-35.875-23.684-43.62v167.014h26
		v-2.729C645.558,453.291,638.97,443.322,638.97,427.83z"/>
	<path fill="#CFBCDB" d="M652.56,362.274c0,7.585,2.064,13.176,6.154,16.812v-34.831C654.618,349.059,652.56,355.061,652.56,362.274
		z"/>
	<path fill="#CFBCDB" d="M645.714,428.625c0,12.264,4.34,20.98,13,26.162v-50.87C650.048,408.743,645.714,416.978,645.714,428.625z"
		/>
	<path fill="#F0E054" d="M920.558,376.631V364.36c0-6.801-0.653-12.899-1.937-18.318h-54.266c0.199,3.177,0.301,6.871,0.301,11.104
		v20.56h54.089C919.343,377.337,919.949,376.983,920.558,376.631z"/>
	<path fill="#F0E054" d="M773.291,366.306c5.125,0.836,9.785,3.046,13.599,6.235c0.024,0.02,0.049,0.039,0.072,0.058
		c0.103,0.087,0.203,0.176,0.306,0.265c1.683,1.432,3.194,3.057,4.501,4.843h37.424v-5.833c0-9.812,1.635-18.422,4.905-25.832
		h-60.807V366.306z"/>
	<path fill="#EBD45B" d="M762.148,366.692c-1.057-8.588-3.27-15.462-6.618-20.65h-43.425c1.201,6.312,1.804,16.196,1.804,29.66
		v2.004h31.747C749.593,372.267,755.406,368.28,762.148,366.692z"/>
	<path fill="#F08D8E" d="M513.979,436.191c0,9.721,4.342,18.424,11.186,24.293h40.637v-6.432h-14.988v-49.499
		c-1.576-0.238-3.19-0.363-4.834-0.363C528.307,404.191,513.979,418.517,513.979,436.191z"/>
	<path fill="#86C2D0" d="M789.803,413.332c0.066-0.072,0.131-0.146,0.196-0.219c0.14-0.158,0.277-0.316,0.413-0.477
		c4.224-4.926,6.78-11.322,6.78-18.319c0-6.213-2.016-11.953-5.424-16.61c-1.307-1.786-2.818-3.411-4.501-4.843
		c-0.103-0.088-0.203-0.178-0.306-0.265c-0.023-0.02-0.048-0.039-0.072-0.058c-3.813-3.189-8.474-5.399-13.599-6.235v0.166v11.235
		v44.456v0.213C779.808,421.311,785.575,418.028,789.803,413.332z"/>
	<path fill="#83C0D0" d="M745.656,377.707c-3.384,4.676-5.384,10.419-5.384,16.633c0,13.702,9.701,25.137,22.609,27.816v-0.352
		v-42.152c0-0.662-0.017-1.299-0.026-1.946c-0.057-3.82-0.278-7.397-0.675-10.715c-0.012-0.098-0.021-0.201-0.032-0.299
		C755.406,368.28,749.593,372.267,745.656,377.707z"/>
	<path fill="#F1A5C7" d="M514.371,323.871c11.101,1.02,21.448-19.598,27.113-33.454h-22.146
		c-4.407,6.389-10.729,12.687-19.771,16.844c-4.867,2.238-9.414,5.154-13.59,8.403v30.235
		C493.816,335.193,504.922,323.002,514.371,323.871z"/>
	<path fill="#EE8383" d="M812.904,429.283c-11.213,8.305-19.381,20.656-24.753,30.949h24.238
		c4.676-8.275,10.47-15.684,16.803-17.412v-35.017C826.229,415.242,821.253,423.102,812.904,429.283z"/>
	<path fill="#1F2A65" d="M973.731,270.848c-11.826,10.897-19.052,26.698-23.063,38.169c4.103,3.023,9.905,4.542,17.427,4.542
		c1.429,0,2.793-0.059,4.108-0.164c4.096-12.895,11.081-29.134,20.733-31.312c0.791-0.179,1.542-0.468,2.257-0.851
		c-0.986-4.694-3.083-8.535-6.34-11.481c-2.547-2.299-5.755-3.95-9.578-4.998C977.67,266.855,975.842,268.903,973.731,270.848z"/>
	<path fill="#F1A5C7" d="M987.686,440.072c1.641-0.654,3.228-1.635,4.75-2.842V421.53v-45.895
		c-10.423-5.672-22.372-8.896-35.073-8.896c-5.166,0-10.206,0.539-15.071,1.553v87.338h-4.904v-0.809h-16.829v-77.116v-1.076
		c-0.608,0.353-1.215,0.706-1.812,1.076c-20.922,12.952-34.866,36.102-34.866,62.516c0,6.939,0.982,13.646,2.78,20.01h40.806v0.252
		h24.989h13.193C971.165,453.244,979.875,443.18,987.686,440.072z"/>
	<path fill="#0077A0" d="M773.291,454.822v4.795c0.539-2.178,0.83-4.451,0.83-6.795c0-2.342-0.291-4.617-0.83-6.793v8.568V454.822z"
		/>
	<path fill="#43AF7D" d="M773.291,454.822h-0.294c0.1-0.072,0.196-0.148,0.294-0.225v-8.568c-0.001-0.004-0.002-0.008-0.003-0.012
		c-0.857,0.5-1.776,0.775-2.771,0.775c-5.093,0-7.636-4.562-7.636-13.691v-2.791v-8.154c-12.908-2.679-22.609-14.115-22.609-27.816
		c0-6.214,2-11.957,5.384-16.633h-31.747v18.271h-7.636c-20.538,0-35.768,2.328-45.684,6.978c-0.647,0.304-1.271,0.626-1.876,0.963
		v50.87c6.339,3.793,14.989,5.697,25.969,5.697c8.774,0,15.444-1.578,20.01-4.738c3.913-2.709,6.98-6.717,9.217-12.01
		c0.372-0.879,0.728-1.785,1.053-2.736c0.662,2.723,1.741,5.145,3.19,7.295c5.463,8.117,16.495,12.189,33.145,12.189
		c1.944,0,3.789-0.088,5.551-0.252h16.281c0.056-0.205,0.111-0.408,0.162-0.615V454.822z M713.909,418.97v5.706
		c0,7.9-1.185,14.088-3.555,18.562c-2.37,4.477-4.917,6.715-7.636,6.715c-2.725,0-4.566-1.316-5.529-3.949
		c-0.968-2.633-1.448-8.512-1.448-17.641v-4.213c0-15.971,5.439-23.96,16.324-23.96h1.844V418.97z"/>
</g>
</svg>
